<mxfile host="Electron" agent="Mozilla/5.0 (Windows NT 10.0; Win64; x64) AppleWebKit/537.36 (KHTML, like Gecko) draw.io/26.0.4 Chrome/128.0.6613.186 Electron/32.2.5 Safari/537.36" version="26.0.4">
  <diagram name="Seite-1" id="3OhWCo6W_67FIZKaBsr4">
    <mxGraphModel dx="683" dy="398" grid="1" gridSize="10" guides="1" tooltips="1" connect="1" arrows="1" fold="1" page="1" pageScale="1" pageWidth="583" pageHeight="827" math="0" shadow="0">
      <root>
        <mxCell id="0" />
        <mxCell id="1" parent="0" />
        <mxCell id="9vVyjqLthcy8OvHBBN0V-2" value="" style="triangle;whiteSpace=wrap;html=1;rotation=-90;fontFamily=Times New Roman;" parent="1" vertex="1">
          <mxGeometry x="187" y="306" width="210" height="216" as="geometry" />
        </mxCell>
        <mxCell id="9vVyjqLthcy8OvHBBN0V-3" value="Accuracy" style="text;html=1;align=center;verticalAlign=middle;whiteSpace=wrap;rounded=0;fontFamily=Times New Roman;" parent="1" vertex="1">
          <mxGeometry x="262" y="276" width="60" height="30" as="geometry" />
        </mxCell>
        <mxCell id="9vVyjqLthcy8OvHBBN0V-4" value="Computational Costs/Time" style="text;html=1;align=center;verticalAlign=middle;whiteSpace=wrap;rounded=0;fontFamily=Times New Roman;" parent="1" vertex="1">
          <mxGeometry x="110" y="510" width="60" height="30" as="geometry" />
        </mxCell>
        <mxCell id="9vVyjqLthcy8OvHBBN0V-5" value="Scalability" style="text;html=1;align=center;verticalAlign=middle;whiteSpace=wrap;rounded=0;fontFamily=Times New Roman;" parent="1" vertex="1">
          <mxGeometry x="410" y="510" width="60" height="30" as="geometry" />
        </mxCell>
      </root>
    </mxGraphModel>
  </diagram>
</mxfile>
